<svg id="Layer_1" data-name="Layer 1" xmlns="http://www.w3.org/2000/svg" viewBox="0 0 1080 1080"><defs><style>.cls-1{fill:#dbdb4d;}.cls-2{fill:#0095a6;}</style></defs><path class="cls-1" d="M303.8,737.26V585.88a1.34,1.34,0,0,1,1.08-1.33h0a.73.73,0,0,1,.84.52,42.87,42.87,0,0,0,10.05,18.17c12.28,13.14,32.81,18.6,56,18.6h15.85A13.11,13.11,0,0,1,400.73,635v34.49a67.82,67.82,0,0,1-67.81,67.82Z"/><path class="cls-1" d="M622.3,572.83a67.8,67.8,0,0,0-67.77-66H440.37a39.63,39.63,0,0,1-39.63-39.63V375.44a1.9,1.9,0,0,0-1.9-1.9H373.51a69.71,69.71,0,0,0-69.71,69.71V537.7a17.87,17.87,0,0,0,.4,3.75,67.81,67.81,0,0,0,67.57,62.3H493.41a32.14,32.14,0,0,1,32.15,32.15v99.46a1.9,1.9,0,0,0,1.9,1.9h25.33a69.71,69.71,0,0,0,69.71-69.71v-92A20.22,20.22,0,0,0,622.3,572.83Z"/><path class="cls-2" d="M463.15,255.18c-165.81,0-300.21,134.41-300.21,300.21s134.4,300.23,300.21,300.23S763.36,721.2,763.36,555.39,629,255.18,463.15,255.18Zm0,556.77c-141.7,0-256.56-114.86-256.56-256.56S321.45,298.84,463.15,298.84,719.7,413.71,719.7,555.39,604.84,812,463.15,812Z"/><path class="cls-2" d="M890.77,270.21a2.49,2.49,0,0,1-1.38,2.23C861.27,286.41,411.3,511,228.77,660.15c-188.46,154,191.86,157.74,191.86,157.74L331.34,826s-355-5.1-155-181.76l39.35-29.34s333.8-231.29,671.11-347.5a3,3,0,0,1,4,2.84Z"/><path class="cls-1" d="M622.5,373.54V524.92a1.35,1.35,0,0,1-1.09,1.33h0a.72.72,0,0,1-.83-.52,43,43,0,0,0-10-18.18c-12.29-13.14-32.81-18.6-56-18.6H538.68a13.11,13.11,0,0,1-13.11-13.11V441.36a67.81,67.81,0,0,1,67.8-67.82Z"/><path class="cls-2" d="M964.55,237.76l-63,106.76a1.63,1.63,0,0,1-3-.52l-12.36-63.74a1.61,1.61,0,0,1,.76-1.71l42-24.89a1.63,1.63,0,0,0-1.32-2.95l-45,14.09a1.62,1.62,0,0,1-1.6-.36L841,227.2a1.63,1.63,0,0,1,1.25-2.81l121,10.92A1.63,1.63,0,0,1,964.55,237.76Z"/></svg>